<svg width="20" height="20" xmlns="http://www.w3.org/2000/svg"><g fill="#414241" fill-rule="evenodd" opacity=".4"><path d="M16.358 3.45A9.078 9.078 0 0 0 9.904.772 9.079 9.079 0 0 0 3.449 3.45 9.08 9.08 0 0 0 .773 9.903a9.079 9.079 0 0 0 2.676 6.455 9.078 9.078 0 0 0 6.455 2.676 9.078 9.078 0 0 0 6.454-2.676 9.078 9.078 0 0 0 2.676-6.455 9.078 9.078 0 0 0-2.676-6.454zM9.904 0a9.867 9.867 0 0 1 7.002 2.9 9.867 9.867 0 0 1 2.901 7.003 9.867 9.867 0 0 1-2.9 7.003 9.867 9.867 0 0 1-7.003 2.901 9.866 9.866 0 0 1-7.003-2.9A9.866 9.866 0 0 1 0 9.902a9.866 9.866 0 0 1 2.901-7.002A9.866 9.866 0 0 1 9.904 0z"/><path d="M6.442 5.4a1.042 1.042 0 1 0 0 2.083 1.042 1.042 0 0 0 0-2.083zm7.847 4.81c-.137-1.13-.652-1.832-2.177-1.832-.894 0-1.497.329-1.75.806h-.027v-.806H8.674v5.96h1.738v-2.955c0-.779.154-1.53 1.108-1.53.96 0 1.03.888 1.03 1.585v2.9h1.788v-3.273c0-.307-.016-.592-.049-.856zM5.4 9.962v4.376h2.084V8.378H5.4v1.585z"/></g></svg>