<svg width="20" height="20" xmlns="http://www.w3.org/2000/svg"><g fill="#414241" fill-rule="evenodd" opacity=".4"><path d="M16.358 3.45A9.095 9.095 0 0 0 9.904.778a9.096 9.096 0 0 0-6.455 2.67A9.092 9.092 0 0 0 .773 9.91a9.09 9.09 0 0 0 2.676 6.454 9.102 9.102 0 0 0 6.455 2.676 9.102 9.102 0 0 0 6.454-2.676 9.088 9.088 0 0 0 2.676-6.454c0-2.522-1.02-4.81-2.676-6.46zM9.904 0a9.89 9.89 0 0 1 7.002 2.9 9.88 9.88 0 0 1 2.901 7.009c0 2.73-1.107 5.21-2.9 7.003a9.89 9.89 0 0 1-7.003 2.9 9.889 9.889 0 0 1-7.003-2.9A9.875 9.875 0 0 1 0 9.909a9.879 9.879 0 0 1 2.901-7.008A9.889 9.889 0 0 1 9.904 0z"/><path d="M14.912 6.76c-.368.159-.768.268-1.19.323.433-.257.762-.652.916-1.135-.4.236-.85.406-1.322.499a2.068 2.068 0 0 0-1.519-.647c-1.14 0-2.073.916-2.073 2.04 0 .164.028.318.06.466a5.889 5.889 0 0 1-4.277-2.133 2.06 2.06 0 0 0-.285 1.025c0 .713.373 1.338.921 1.7a2.01 2.01 0 0 1-.937-.252v.027c0 .264.05.505.142.735a2.069 2.069 0 0 0 1.525 1.262 2.04 2.04 0 0 1-.549.076c-.131 0-.263-.016-.39-.044a2.092 2.092 0 0 0 1.937 1.426A4.195 4.195 0 0 1 5.299 13c-.17 0-.329-.011-.499-.027a5.987 5.987 0 0 0 3.18.915c3.241 0 5.243-2.242 5.764-4.573a5.61 5.61 0 0 0 .137-1.234v-.263c.4-.29.757-.653 1.03-1.058"/></g></svg>