<?xml version="1.0" encoding="UTF-8" standalone="no"?>
<svg width="20px" height="20px" viewBox="0 0 20 20" version="1.1" xmlns="http://www.w3.org/2000/svg" xmlns:xlink="http://www.w3.org/1999/xlink">
    <!-- Generator: Sketch 50.2 (55047) - http://www.bohemiancoding.com/sketch -->
    <title>Group</title>
    <desc>Created with Sketch.</desc>
    <defs></defs>
    <g id="Page-1" stroke="none" stroke-width="1" fill="none" fill-rule="evenodd" opacity="0.4">
        <g id="Group-4" transform="translate(-138.000000, -544.000000)" fill="#414241">
            <g id="Group" transform="translate(138.000000, 544.000000)">
                <path d="M16.3634,3.4492 C14.7072,1.7986 12.426,0.773 9.9034,0.773 C7.3812,0.773 5.0998,1.7986 3.4492,3.4492 C1.7984,5.0998 0.773,7.381 0.773,9.9036 C0.773,12.4262 1.7984,14.7072 3.4492,16.3634 C5.0998,18.014 7.3812,19.034 9.9034,19.034 C12.426,19.034 14.7072,18.014 16.3634,16.3634 C18.014,14.7072 19.034,12.4262 19.034,9.9036 C19.034,7.381 18.014,5.0998 16.3634,3.4492 Z M9.9034,0 C12.6398,0 15.113,1.1076 16.9062,2.901 C18.6994,4.6942 19.807,7.1672 19.807,9.9036 C19.807,12.6398 18.6994,15.113 16.9062,16.9062 C15.113,18.6994 12.6398,19.807 9.9034,19.807 C7.1672,19.807 4.694,18.6994 2.9008,16.9062 C1.1076,15.113 0,12.6398 0,9.9036 C0,7.1672 1.1076,4.6942 2.9008,2.901 C4.694,1.1076 7.1672,0 9.9034,0 Z" id="Fill-4"></path>
                <path d="M10.7202,7.827 L10.7202,7.0154 C10.7202,6.6262 10.978,6.533 11.1646,6.533 C11.3454,6.533 12.2996,6.533 12.2996,6.533 L12.2996,4.8 L10.7368,4.8 C8.9984,4.8 8.609,6.0832 8.609,6.9168 L8.609,7.827 L7.6,7.827 L7.6,9.8506 L8.62,9.8506 C8.62,12.1482 8.62,14.9066 8.62,14.9066 L10.6436,14.9066 C10.6436,14.9066 10.6436,12.1098 10.6436,9.8506 L12.1406,9.8506 L12.2064,9.0554 L12.327,7.827 L10.7202,7.827" id="Fill-40"></path>
            </g>
        </g>
    </g>
</svg>