<?xml version="1.0" encoding="UTF-8" standalone="no"?>
<svg width="20px" height="20px" viewBox="0 0 20 20" version="1.1" xmlns="http://www.w3.org/2000/svg" xmlns:xlink="http://www.w3.org/1999/xlink">
    <!-- Generator: Sketch 50.2 (55047) - http://www.bohemiancoding.com/sketch -->
    <title>Group 2</title>
    <desc>Created with Sketch.</desc>
    <defs></defs>
    <g id="Page-1" stroke="none" stroke-width="1" fill="none" fill-rule="evenodd" opacity="0.4">
        <g id="Group-4" transform="translate(-138.000000, -514.000000)" fill="#414241">
            <g id="Group-2" transform="translate(138.000000, 514.000000)">
                <path d="M16.358,3.4492 C14.7072,1.7932 12.4264,0.7732 9.9038,0.7732 C7.3808,0.7732 5.1,1.7932 3.4492,3.4492 C1.7934,5.0998 0.7732,7.381 0.7732,9.9034 C0.7732,12.426 1.7934,14.7074 3.4492,16.3578 C5.1,18.014 7.3808,19.0338 9.9038,19.0338 C12.4264,19.0338 14.7072,18.014 16.358,16.3578 C18.014,14.7074 19.034,12.426 19.034,9.9034 C19.034,7.381 18.014,5.0998 16.358,3.4492 Z M9.9038,0 C12.64,0 15.1132,1.1076 16.9064,2.9008 C18.6996,4.694 19.8072,7.1672 19.8072,9.9034 C19.8072,12.6398 18.6996,15.113 16.9064,16.9062 C15.1132,18.6994 12.64,19.8072 9.9038,19.8072 C7.1672,19.8072 4.6942,18.6994 2.9012,16.9062 C1.1076,15.113 0,12.6398 0,9.9034 C0,7.1672 1.1076,4.694 2.9012,2.9008 C4.6942,1.1076 7.1672,0 9.9038,0 Z" id="Fill-21"></path>
                <path d="M6.442,5.4 C5.8662,5.4 5.4,5.8662 5.4,6.442 C5.4,7.0178 5.8662,7.484 6.442,7.484 C7.0178,7.484 7.4838,7.0178 7.4838,6.442 C7.4838,5.8662 7.0178,5.4 6.442,5.4 Z M14.2892,10.2094 C14.152,9.0796 13.6368,8.3778 12.1122,8.3778 C11.2182,8.3778 10.615,8.7068 10.3628,9.184 L10.3354,9.184 L10.3354,8.3778 L8.6736,8.3778 L8.6736,14.3386 L10.4122,14.3386 L10.4122,11.383 C10.4122,10.604 10.5656,9.853 11.5202,9.853 C12.4794,9.853 12.5506,10.7412 12.5506,11.4376 L12.5506,14.3386 L14.3384,14.3386 L14.3384,11.0648 C14.3384,10.7576 14.3218,10.4726 14.2892,10.2094 Z M5.4,9.9626 L5.4,14.3386 L7.4838,14.3386 L7.4838,8.3778 L5.4,8.3778 L5.4,9.9626 Z" id="Fill-47"></path>
            </g>
        </g>
    </g>
</svg>