<svg width="123" height="27" xmlns="http://www.w3.org/2000/svg"><path d="M10.63 20.9H9.302c-.531 0-.99-.014-1.38-.04a8.4 8.4 0 0 1-1.2-.174 4.32 4.32 0 0 1-1.048-.353 3.624 3.624 0 0 1-.83-.594 2.809 2.809 0 0 1-.636-.9 5.594 5.594 0 0 1-.378-1.26 9.077 9.077 0 0 1-.14-1.681V9.442H.852V7.227h2.972v-3.2l3.144-.974v4.174h3.555v2.215H6.968v6.656c0 .426.033.771.1 1.033.066.263.165.48.298.654.133.173.356.3.67.38.314.08.656.133 1.028.16.371.027.893.04 1.565.04V20.9zm5.418-8.47h6.766c-.16-.97-.517-1.712-1.075-2.228-.557-.516-1.238-.774-2.043-.774-.946 0-1.737.267-2.374.8-.637.534-1.061 1.268-1.274 2.201zm3.887 8.79c-2.29 0-4.097-.658-5.419-1.975-1.322-1.316-1.983-3.036-1.983-5.162 0-.96.16-1.871.478-2.734a7.34 7.34 0 0 1 1.346-2.294c.58-.667 1.313-1.196 2.202-1.587.889-.392 1.873-.587 2.952-.587s2.02.186 2.825.56c.805.373 1.442.896 1.91 1.567a7.182 7.182 0 0 1 1.042 2.261c.225.836.338 1.76.338 2.774 0 .258-.022.454-.066.587h-9.551c.053 1.334.457 2.321 1.213 2.961.757.64 1.763.96 3.018.96 1.468 0 2.901-.488 4.298-1.466l.89 2.4c-.859.596-1.723 1.034-2.594 1.314-.871.28-1.838.42-2.899.42zm7.94-.307V1.479h3.25v19.434h-3.25zm9.168-8.484h6.766c-.16-.969-.517-1.711-1.075-2.227-.557-.516-1.238-.774-2.042-.774-.947 0-1.738.267-2.375.8-.637.534-1.061 1.268-1.274 2.201zm3.887 8.79c-2.29 0-4.097-.657-5.419-1.974-1.322-1.316-1.983-3.036-1.983-5.162 0-.96.16-1.871.478-2.734a7.34 7.34 0 0 1 1.346-2.294c.58-.667 1.313-1.196 2.202-1.587.889-.392 1.873-.587 2.952-.587s2.02.186 2.825.56c.805.373 1.442.896 1.91 1.567a7.182 7.182 0 0 1 1.042 2.261c.226.836.338 1.76.338 2.774 0 .258-.022.454-.066.587h-9.551c.053 1.334.457 2.321 1.213 2.961.757.64 1.763.96 3.018.96 1.468 0 2.901-.488 4.298-1.466l.89 2.4c-.859.596-1.723 1.034-2.594 1.314-.871.28-1.837.42-2.899.42zm14.679-2.667c.61 0 1.143-.122 1.598-.367a2.76 2.76 0 0 0 1.075-1.007c.26-.427.455-.9.583-1.42.129-.52.193-1.088.193-1.701 0-.845-.115-1.596-.345-2.254a3.443 3.443 0 0 0-1.148-1.614c-.535-.418-1.191-.627-1.97-.627-.769 0-1.419.206-1.95.62a3.43 3.43 0 0 0-1.14 1.587c-.23.645-.345 1.385-.345 2.221 0 .623.064 1.198.192 1.727.128.53.325 1.01.59 1.441a2.85 2.85 0 0 0 1.081 1.02c.456.25.984.374 1.586.374zm-6.5 7.63V11.829c0-.791-.084-2.325-.253-4.602h3.49v1.961c.105-.498.55-1.007 1.333-1.527.782-.52 1.74-.78 2.872-.78 1.193 0 2.248.33 3.163.993a6.198 6.198 0 0 1 2.07 2.581c.464 1.059.696 2.21.696 3.455 0 .934-.137 1.834-.41 2.701a8.012 8.012 0 0 1-1.168 2.334 5.57 5.57 0 0 1-1.937 1.654 5.504 5.504 0 0 1-2.6.62c-1.07 0-1.981-.253-2.733-.76s-1.18-.982-1.287-1.427v7.15H49.11zm22.487-4.962c-1.185 0-2.242-.194-3.17-.58-.929-.387-1.679-.912-2.249-1.575a6.947 6.947 0 0 1-1.3-2.267 8.223 8.223 0 0 1-.444-2.728c0-.987.15-1.91.45-2.768a6.89 6.89 0 0 1 1.32-2.28c.58-.663 1.332-1.185 2.256-1.568.924-.382 1.965-.573 3.124-.573 1.185 0 2.237.189 3.157.567.92.377 1.658.898 2.215 1.56a6.736 6.736 0 0 1 1.254 2.281c.279.858.418 1.794.418 2.808 0 .951-.146 1.847-.438 2.688a7.088 7.088 0 0 1-1.28 2.26c-.562.667-1.3 1.196-2.215 1.588-.916.39-1.948.587-3.098.587zm-.066-2.668c.645 0 1.211-.122 1.698-.367a2.867 2.867 0 0 0 1.147-1.014A4.91 4.91 0 0 0 75 15.737a6.74 6.74 0 0 0 .205-1.707c0-1.307-.307-2.379-.922-3.214-.614-.836-1.527-1.254-2.739-1.254-.823 0-1.517.206-2.083.62a3.5 3.5 0 0 0-1.227 1.607c-.252.658-.378 1.405-.378 2.241 0 .827.117 1.57.352 2.228a3.512 3.512 0 0 0 1.207 1.64c.57.436 1.276.654 2.116.654zm9.336 2.36V10.696c0-.533-.022-1.089-.066-1.667a22.19 22.19 0 0 0-.133-1.334l-.066-.467h3.502v1.801c.54-.711 1.077-1.247 1.612-1.607a3.169 3.169 0 0 1 1.81-.54c.399 0 .85.066 1.354.2v2.894c-.593-.195-1.141-.293-1.645-.293-.911 0-1.654.298-2.229.893-.575.596-.862 1.459-.862 2.588v7.75h-3.277zm19.72-.013H99.26c-.53 0-.99-.013-1.38-.04a8.4 8.4 0 0 1-1.2-.173 4.32 4.32 0 0 1-1.048-.353 3.624 3.624 0 0 1-.83-.594 2.809 2.809 0 0 1-.636-.9 5.594 5.594 0 0 1-.378-1.26 9.077 9.077 0 0 1-.14-1.681V9.442H90.81V7.227h2.971v-3.2l3.144-.974v4.174h3.555v2.215h-3.555v6.656c0 .426.033.771.1 1.033.066.263.165.48.298.654.133.173.356.3.67.38.314.08.657.133 1.028.16.371.027.893.04 1.565.04V20.9zm12.111-12.598h-1.727V4.774h-3.237V8.3H106V.13h1.733v3.203h3.237V.129h1.727V8.3zm9.48-4.097c0 .961-.17 1.767-.51 2.417a3.12 3.12 0 0 1-1.502 1.429l1.968 2.197h-2.22l-1.498-1.834h-.128c-1.252 0-2.214-.363-2.885-1.09-.67-.727-1.006-1.77-1.006-3.13 0-1.36.337-2.4 1.01-3.117C116.077.36 117.041 0 118.297 0s2.217.361 2.882 1.084c.665.723.998 1.763.998 3.12zm-5.964 0c0 .913.173 1.6.52 2.062.346.463.864.694 1.554.694 1.383 0 2.074-.919 2.074-2.756 0-1.841-.688-2.762-2.063-2.762-.69 0-1.21.232-1.56.696-.35.464-.525 1.153-.525 2.066z" fill="#33363D" fill-rule="evenodd"/></svg>